<svg width="87" height="88" viewBox="0 0 87 88" fill="none" xmlns="http://www.w3.org/2000/svg">
<path d="M86.3298 67.3229C86.3301 70.7554 85.4013 74.124 83.6421 77.0714C81.883 80.0188 79.3589 82.4352 76.3376 84.0643C73.3163 85.6933 69.9105 86.4743 66.4813 86.3244C63.052 86.1746 59.7273 85.0994 56.8597 83.213C55.6706 82.3315 54.5353 81.3798 53.4597 80.3629C50.7197 78.0529 46.8797 77.2529 43.0397 77.2529C39.5797 77.2529 36.0897 77.8029 33.5297 79.7529C32.3 81.1784 30.8641 82.412 29.2697 83.4129C29.2368 83.4281 29.2064 83.4484 29.1797 83.4729V83.4829C29.1518 83.5031 29.1216 83.5199 29.0897 83.5329C29.0697 83.5529 29.0597 83.5529 29.0597 83.5529C26.0786 85.3831 22.6477 86.349 19.1497 86.3429H19.0197C15.1198 86.3416 11.3145 85.142 8.11907 82.9063C4.92361 80.6706 2.49238 77.507 1.15453 73.8437C-0.183315 70.1805 -0.363127 66.1946 0.639454 62.4258C1.64204 58.6569 3.77857 55.2873 6.75976 52.7729C7.82503 51.3141 8.54328 49.6314 8.85976 47.8529C8.86245 47.7859 8.86912 47.7191 8.87975 47.6529C9.13981 46.2178 9.26369 44.7614 9.24975 43.3029C9.24975 39.4829 8.47976 35.673 6.19976 32.963C5.12112 31.8385 4.11571 30.6461 3.18975 29.3929C1.32451 26.5208 0.269048 23.1984 0.134693 19.7764C0.000338331 16.3544 0.792064 12.9595 2.42638 9.94992C4.0607 6.94036 6.477 4.42771 9.42037 2.677C12.3637 0.926296 15.725 0.00244127 19.1497 0.00292988H19.3597C24.3686 0.0605802 29.1528 2.09098 32.6742 5.65359C36.1957 9.21621 38.1703 14.0237 38.1697 19.0329V19.1229C38.1539 22.8068 37.0663 26.4065 35.0397 29.4829C34.1562 30.6704 33.2046 31.8056 32.1897 32.8829C29.8797 35.6229 29.0797 39.4529 29.0797 43.3029C29.072 44.5341 29.1556 45.7641 29.3297 46.9829C29.5809 49.2144 30.4386 51.3345 31.8097 53.1129C32.2297 53.6229 32.6797 54.1129 33.1297 54.6029C33.1897 54.6429 33.2397 54.6929 33.2897 54.7329C35.8397 56.8629 39.4697 57.4229 43.0397 57.4229C43.4597 57.4229 43.8897 57.4129 44.3097 57.3929C47.6797 57.2329 50.9597 56.4029 53.3697 54.3629C54.4981 53.2879 55.6939 52.2859 56.9497 51.3629C59.3088 49.8314 61.9779 48.8416 64.7651 48.4647C67.5524 48.0878 70.3886 48.333 73.0697 49.1829C73.0916 49.1887 73.112 49.1989 73.1297 49.213C76.965 50.4434 80.3103 52.8605 82.6828 56.1155C85.0553 59.3705 86.3325 63.2951 86.3298 67.3229Z" fill="#F1F1F1"/>
<g style="mix-blend-mode:screen" opacity="0.6">
<g style="mix-blend-mode:screen" opacity="0.6">
<path d="M21.4079 0.269989H20.6879C20.2179 0.239989 19.5378 0.300006 18.6778 0.350006C17.6507 0.455252 16.6318 0.628961 15.6278 0.869995C14.3413 1.18332 13.0887 1.62208 11.8878 2.17999C9.57165 3.24746 7.50157 4.78304 5.80805 6.68997C4.11453 8.59691 2.83426 10.8339 2.04789 13.26C1.45772 15.0477 1.15397 16.9174 1.14789 18.8C1.10746 20.6796 1.3536 22.5545 1.87787 24.36C2.38257 26.1022 3.15515 27.7553 4.16788 29.26C5.15788 30.69 6.5379 31.92 7.5279 33.5C8.41026 34.9431 9.00769 36.5419 9.28788 38.21C9.53983 39.5753 9.6604 40.9617 9.64789 42.35C9.65454 43.4111 9.57763 44.471 9.41788 45.52C9.32383 46.1914 9.18688 46.8561 9.00788 47.51C8.90788 47.84 8.8379 48.05 8.8079 48.15C8.8179 48.1 8.83788 48 8.85788 47.85C8.86057 47.783 8.86724 47.7162 8.87787 47.65C9.13794 46.2149 9.26185 44.7584 9.2479 43.3C9.2479 39.48 8.47788 35.67 6.19788 32.96C5.11924 31.8356 4.11387 30.6431 3.1879 29.39C1.32266 26.5178 0.267171 23.1955 0.132816 19.7735C-0.0015394 16.3514 0.790218 12.9565 2.42454 9.94699C4.05885 6.93743 6.47515 4.42475 9.41852 2.67404C12.3618 0.923335 15.7232 -0.000488416 19.1478 1.93718e-07H19.3578C19.807 0.0295116 20.2543 0.0829242 20.6978 0.160004C21.1578 0.230004 21.4079 0.269989 21.4079 0.269989Z" fill="white"/>
</g>
</g>
<g style="mix-blend-mode:multiply" opacity="0.25">
<g style="mix-blend-mode:multiply" opacity="0.25">
<path d="M29.3297 47.0231L29.2297 46.6931C29.1647 46.4781 29.0647 46.1631 28.9717 45.7501C28.6993 44.6103 28.5369 43.447 28.4867 42.2761C28.3974 40.5909 28.5592 38.9018 28.9667 37.2641C29.195 36.3123 29.5304 35.3894 29.9667 34.5131C30.4435 33.6259 31.0076 32.7884 31.6507 32.0131C32.2837 31.2541 32.9777 30.5671 33.5057 29.9061C34.0535 29.2352 34.5595 28.5312 35.0207 27.7981C35.4484 27.0996 35.8384 26.3785 36.1887 25.6381C36.5067 24.9381 36.7887 24.2381 37.0207 23.5891C37.3893 22.5224 37.6867 21.4323 37.9107 20.3261C38.0757 19.5141 38.1507 19.0371 38.1507 19.0371C38.2272 19.4722 38.2796 19.9112 38.3077 20.3521C38.3888 21.5275 38.3308 22.7084 38.1347 23.8701C37.8635 25.5406 37.3303 27.1579 36.5547 28.6621C36.119 29.5204 35.6059 30.3371 35.0217 31.1021C34.3997 31.9121 33.7567 32.5761 33.1917 33.2871C32.6127 33.949 32.1015 34.6673 31.6657 35.4311C31.2603 36.178 30.9203 36.9586 30.6497 37.7641C30.1589 39.2465 29.8166 40.774 29.6277 42.3241C29.4547 43.7061 29.3917 44.8841 29.3627 45.7141L29.3297 47.0231Z" fill="black"/>
</g>
</g>
<g style="mix-blend-mode:screen" opacity="0.6">
<g style="mix-blend-mode:screen" opacity="0.6">
<path d="M73.1299 49.21C73.0199 49.2 72.5399 49.12 71.7999 49.03C71.3699 48.98 70.8599 48.94 70.2699 48.91C69.6172 48.8714 68.9629 48.868 68.3099 48.9C67.9499 48.92 67.5099 48.93 67.1899 48.96C66.7899 49 66.3899 49.03 65.9999 49.08C65.1588 49.2007 64.3244 49.3643 63.4999 49.57C62.6271 49.7901 61.7688 50.0639 60.9299 50.39C60.0691 50.7228 59.2365 51.1241 58.4399 51.59C57.6415 52.0416 56.8852 52.5637 56.1799 53.15C55.4799 53.75 54.7499 54.38 53.9899 54.98C53.2444 55.5721 52.424 56.063 51.5499 56.44C50.7842 56.7704 49.9867 57.0217 49.1699 57.19C48.4942 57.3329 47.8091 57.4265 47.1199 57.47C46.5907 57.508 46.0596 57.5114 45.5299 57.48C44.6599 57.45 44.1699 57.42 44.1699 57.42L44.3099 57.39C47.6799 57.23 50.9599 56.4 53.3699 54.36C54.4983 53.285 55.694 52.2829 56.9499 51.36C59.309 49.8285 61.9782 48.8387 64.7654 48.4618C67.5527 48.0849 70.3888 48.3301 73.0699 49.18C73.0918 49.1858 73.1122 49.196 73.1299 49.21Z" fill="white"/>
</g>
</g>
<g style="mix-blend-mode:multiply" opacity="0.25">
<g style="mix-blend-mode:multiply" opacity="0.25">
<path d="M29.0527 83.552C29.0527 83.552 29.3417 83.36 29.8527 82.966C30.5887 82.395 31.2869 81.7767 31.9427 81.115C32.3787 80.695 32.7717 80.184 33.3287 79.648C33.9306 79.0934 34.6067 78.6252 35.3377 78.257C37.0967 77.4232 38.9871 76.9011 40.9247 76.714C43.2142 76.4313 45.534 76.5137 47.7977 76.958C48.4217 77.0795 49.0385 77.2347 49.6457 77.423C50.2717 77.6202 50.8796 77.8708 51.4627 78.172C52.6327 78.7994 53.7381 79.5407 54.7627 80.385C55.7937 81.193 56.7947 82.018 57.8567 82.701C58.3815 83.0447 58.9314 83.3485 59.5017 83.61C60.083 83.8864 60.6793 84.1301 61.2877 84.34C63.7638 85.1986 66.3963 85.5118 69.0047 85.258L69.4927 85.208L69.9737 85.137C70.3147 85.085 70.6737 85.037 70.9657 84.965C71.5991 84.8354 72.2252 84.6729 72.8417 84.478C74.0819 84.0818 75.2745 83.5495 76.3977 82.891C78.5401 81.6657 80.4141 80.0217 81.9079 78.057C83.4017 76.0923 84.4848 73.847 85.0927 71.455C85.6148 69.3597 85.7614 67.1885 85.5257 65.042C85.3273 63.2076 84.8705 61.4104 84.1687 59.704C83.6298 58.3722 82.9417 57.1058 82.1177 55.929C81.7897 55.429 81.4467 55.013 81.1567 54.645C80.9194 54.3267 80.6619 54.0241 80.3857 53.739L79.7087 53.01L80.4617 53.662C80.7707 53.9169 81.0624 54.1922 81.3347 54.486C81.7266 54.8628 82.0918 55.2665 82.4277 55.694C83.371 56.8319 84.1822 58.0732 84.8457 59.394C86.7989 63.2128 87.3982 67.5813 86.5457 71.785C86.0163 74.3417 84.9706 76.7635 83.4727 78.902C81.0176 82.3961 77.5023 85.0067 73.4477 86.347C72.7505 86.575 72.0414 86.7649 71.3237 86.916C70.9487 87.007 70.6167 87.051 70.2747 87.106L69.7297 87.191L69.1867 87.248C66.2939 87.5052 63.3796 87.1341 60.6437 86.16C59.2923 85.6944 58.0088 85.0514 56.8267 84.248C55.6617 83.454 54.6487 82.57 53.6587 81.754C52.7327 80.9565 51.7386 80.2418 50.6877 79.618C50.1861 79.3298 49.6596 79.0871 49.1147 78.893C48.5774 78.7048 48.0311 78.5436 47.4777 78.41C45.3663 77.9113 43.1933 77.7237 41.0277 77.853C39.1904 77.9297 37.3762 78.2924 35.6507 78.928C34.9471 79.2138 34.2868 79.5961 33.6887 80.064C33.1547 80.497 32.6787 81.014 32.2077 81.398C31.4905 82.0129 30.7236 82.5671 29.9147 83.055C29.3607 83.393 29.0527 83.552 29.0527 83.552Z" fill="black"/>
</g>
</g>
<g style="mix-blend-mode:multiply" opacity="0.25">
<g style="mix-blend-mode:multiply" opacity="0.25">
<path d="M84.2024 10.3599L84.5174 10.8749C84.8105 11.3665 85.0775 11.8732 85.3174 12.3929C86.1862 14.2755 86.7166 16.2963 86.8844 18.3629L86.9174 18.8529L86.9254 18.9769C86.928 19.0102 86.928 19.0436 86.9254 19.0769V19.1369V19.3809C86.9194 19.7076 86.9134 20.0409 86.9074 20.3809C86.9014 20.7209 86.8928 21.0649 86.8814 21.4129C86.8564 21.7659 86.7734 22.1429 86.7204 22.5129C86.4974 24.0829 86.0638 25.6157 85.4314 27.0699C85.1124 27.8411 84.7315 28.5851 84.2924 29.2949C83.8731 30.0419 83.3832 30.7472 82.8294 31.4009L82.0024 32.4059C81.7074 32.7249 81.3805 33.0159 81.0695 33.3229C80.7585 33.6299 80.4455 33.9389 80.1115 34.2229L79.0644 35.0229C77.6526 36.0541 76.1131 36.8981 74.4844 37.5339C73.6871 37.8443 72.8704 38.1022 72.0394 38.3059C71.2204 38.5159 70.3814 38.5919 69.5754 38.7339C68.7604 38.8179 67.9484 38.8149 67.1624 38.8339C66.3754 38.8129 65.6094 38.6869 64.8624 38.6189C63.4767 38.41 62.1221 38.0308 60.8294 37.4899C59.7276 37.0866 58.6784 36.5521 57.7044 35.8979C56.9532 35.4082 56.2432 34.8581 55.5814 34.2529C55.1576 33.8693 54.7568 33.461 54.3814 33.0299L53.9814 32.5719C56.0956 34.341 58.5572 35.6471 61.2074 36.4059C61.8047 36.6095 62.4192 36.7588 63.0434 36.8519C63.7022 36.9799 64.3671 37.0747 65.0354 37.1359C65.7254 37.1469 66.4354 37.2179 67.1514 37.1859C67.8694 37.1019 68.6074 37.0989 69.3454 36.9859C70.0754 36.8199 70.8314 36.7259 71.5664 36.5019L72.6665 36.1389C73.0443 36.0386 73.4124 35.9047 73.7664 35.7389C75.2322 35.1417 76.6148 34.3583 77.8804 33.4079L78.8404 32.7009C79.1404 32.4489 79.4224 32.1639 79.7154 31.9009C80.0084 31.6379 80.3034 31.3699 80.5734 31.0849L81.3324 30.1849C81.8384 29.5996 82.2997 28.9772 82.7124 28.3229C83.1387 27.6962 83.513 27.0357 83.8314 26.3479C84.1602 25.6912 84.4406 25.0114 84.6704 24.3139C84.9201 23.6636 85.1121 22.9927 85.2444 22.3089C85.3174 21.9759 85.4194 21.6639 85.4674 21.3239C85.5154 20.9839 85.5404 20.6339 85.5754 20.2979C85.6104 19.9619 85.6514 19.6309 85.6884 19.3059L85.7164 19.0639L85.7234 19.0029C85.7234 19.0629 85.7234 18.9839 85.7234 18.9839V18.8679L85.7374 18.4069C85.7598 16.4213 85.492 14.443 84.9424 12.5349C84.7374 11.7964 84.4904 11.0701 84.2024 10.3599Z" fill="black"/>
</g>
</g>
<g style="mix-blend-mode:screen" opacity="0.6">
<g style="mix-blend-mode:screen" opacity="0.6">
<path d="M76.6577 2.46999C76.6577 2.46999 76.0477 2.25997 74.9977 1.85997C74.4977 1.64997 73.8177 1.51998 73.0877 1.30998C72.7177 1.22998 72.3177 1.14999 71.8977 1.06999C71.4777 1.00999 71.0277 0.939991 70.5677 0.879991C70.1077 0.849991 69.6177 0.809985 69.1177 0.779985C68.6177 0.789985 68.1077 0.749985 67.5777 0.779985C66.4723 0.827997 65.3724 0.961726 64.2877 1.17998C63.7277 1.26998 63.1677 1.44998 62.5977 1.58998C62.0477 1.78998 61.4677 1.93998 60.9177 2.17998C59.7905 2.61275 58.7086 3.15536 57.6877 3.79997C57.1977 4.13997 56.6477 4.44999 56.2077 4.81999L55.5077 5.36998L54.8077 5.99999C52.3928 8.22594 50.5917 11.0361 49.5777 14.16C49.0984 15.6016 48.7733 17.0899 48.6077 18.6C48.5477 19.15 48.4977 19.6 48.4877 19.9C48.4777 20.2 48.4577 20.36 48.4577 20.36C48.4577 20.36 48.4277 20.2 48.3777 19.9C48.3477 19.76 48.3277 19.57 48.2877 19.36V19.323C48.2794 19.2266 48.276 19.1298 48.2777 19.033C48.2775 15.7183 49.1432 12.461 50.789 9.58376C52.4348 6.7065 54.8036 4.30905 57.6609 2.62883C60.5182 0.948608 63.7648 0.0439041 67.0793 0.00428909C70.3938 -0.035326 73.661 0.791519 76.5577 2.40297C76.6297 2.44997 76.6577 2.46999 76.6577 2.46999Z" fill="white"/>
</g>
</g>
</svg>
